<?xml version="1.0" standalone="no"?>
<!DOCTYPE svg PUBLIC "-//W3C//DTD SVG 20010904//EN"
 "http://www.w3.org/TR/2001/REC-SVG-20010904/DTD/svg10.dtd">
<svg version="1.0" xmlns="http://www.w3.org/2000/svg"
 width="908.000000pt" height="696.000000pt" viewBox="0 0 908.000000 696.000000"
 preserveAspectRatio="xMidYMid meet">

<g transform="translate(0.000000,696.000000) scale(0.100000,-0.100000)"
fill="#000000" stroke="none">
<path d="M4345 6939 c-551 -53 -1070 -300 -1460 -695 -354 -357 -577 -803
-662 -1319 -25 -155 -25 -534 0 -694 85 -534 320 -989 703 -1361 195 -189 370
-310 619 -431 502 -243 1063 -300 1610 -163 871 217 1555 929 1738 1809 38
178 50 300 49 495 0 626 -229 1192 -667 1649 -486 507 -1224 779 -1930 710z
m541 -184 c720 -107 1331 -549 1654 -1197 115 -232 184 -457 215 -708 22 -166
16 -482 -10 -630 -82 -458 -279 -849 -589 -1169 -191 -196 -384 -336 -619
-451 -205 -99 -368 -152 -602 -195 -141 -27 -490 -32 -651 -10 -1125 149
-1959 1139 -1910 2265 13 321 81 588 220 875 220 453 561 795 1011 1016 226
110 466 183 695 208 52 6 111 13 130 15 70 8 351 -4 456 -19z"/>
<path d="M3102 5844 c-89 -44 -145 -134 -146 -234 0 -69 17 -119 58 -173 29
-38 33 -53 39 -125 19 -249 212 -580 530 -909 l88 -91 -20 -40 c-11 -21 -25
-68 -31 -104 -21 -122 26 -240 124 -305 63 -43 116 -56 198 -51 131 10 263
100 322 220 146 299 -121 577 -419 437 l-48 -23 -84 90 c-236 252 -381 468
-448 668 -32 97 -33 136 -2 136 35 0 119 44 154 81 39 41 72 113 73 155 0 29
4 32 38 37 20 4 80 2 132 -3 159 -17 326 -62 523 -142 54 -22 100 -38 103 -36
2 3 7 47 10 99 l7 94 -129 48 c-246 91 -474 134 -657 124 -98 -5 -101 -5 -136
23 -75 58 -190 68 -279 24z m196 -132 c50 -33 67 -114 36 -173 -23 -45 -91
-73 -143 -59 -71 19 -114 96 -91 163 27 84 124 118 198 69z m808 -1344 c2 -3
-5 -32 -17 -66 -19 -56 -25 -63 -77 -93 -63 -35 -62 -35 -103 43 -17 34 -18
39 -2 85 24 74 23 73 114 53 44 -10 82 -20 85 -22z m-282 -89 c38 -9 48 -18
71 -60 14 -27 24 -53 21 -58 -4 -5 -28 -21 -54 -36 -40 -23 -54 -26 -96 -20
-88 11 -88 13 -58 105 29 89 32 90 116 69z m318 -70 c29 -6 56 -14 60 -18 10
-9 -41 -161 -56 -167 -6 -2 -36 2 -66 9 -51 12 -57 16 -82 62 -15 28 -28 53
-28 57 0 6 99 66 112 67 4 1 31 -4 60 -10z m-170 -128 c28 -48 28 -49 12 -102
-9 -30 -20 -58 -24 -63 -7 -7 -151 18 -172 30 -4 3 3 32 15 66 19 53 29 66 67
89 25 15 52 28 60 28 8 1 27 -21 42 -48z"/>
<path d="M5835 5858 c-16 -6 -46 -23 -66 -38 -35 -28 -38 -28 -136 -23 -183
10 -412 -33 -655 -123 l-126 -47 5 -96 c3 -53 7 -98 9 -100 2 -2 40 13 86 32
234 99 549 170 669 151 34 -6 37 -9 43 -50 7 -56 35 -110 78 -151 37 -35 111
-72 146 -73 27 0 28 -21 7 -105 -34 -127 -145 -326 -274 -488 -67 -84 -218
-249 -253 -277 -25 -19 -25 -19 -64 0 -124 62 -274 42 -367 -48 -68 -66 -82
-102 -82 -222 0 -96 2 -110 29 -163 41 -80 116 -153 195 -191 59 -28 76 -31
156 -31 78 0 97 4 141 27 128 67 188 210 150 358 -9 36 -24 75 -32 88 -15 22
-12 26 85 128 311 326 499 651 518 896 6 73 10 87 40 126 138 181 17 434 -206
431 -37 0 -79 -5 -96 -11z m163 -145 c105 -66 58 -236 -66 -236 -78 0 -132 53
-132 128 0 103 111 164 198 108z m-772 -1344 c31 -29 39 -71 20 -107 -43 -83
-177 -37 -176 60 1 70 100 100 156 47z m181 -110 c8 -7 21 -26 29 -42 47 -89
-72 -159 -145 -86 -47 46 -41 105 14 137 23 14 80 9 102 -9z m-317 -44 c92
-47 72 -165 -28 -165 -98 0 -137 124 -52 167 32 16 45 16 80 -2z m190 -120
c92 -47 72 -165 -28 -165 -98 0 -137 124 -52 167 32 16 45 16 80 -2z"/>
<path d="M4174 5245 c-60 -41 -158 -114 -219 -162 l-110 -88 55 -6 c30 -4 84
-14 119 -23 63 -17 64 -17 95 6 18 13 67 48 109 78 l77 55 -6 105 c-4 58 -8
106 -9 107 -1 2 -51 -31 -111 -72z"/>
<path d="M4859 5220 c-1 -55 -2 -104 -3 -109 -1 -5 33 -33 74 -63 41 -29 89
-64 105 -76 29 -21 31 -21 90 -5 33 8 87 18 120 22 l60 6 -99 79 c-94 75 -289
216 -328 237 -17 9 -18 2 -19 -91z"/>
<path d="M3746 4885 c-22 -8 -61 -36 -88 -62 l-48 -48 61 -68 61 -67 48 40
c26 22 62 43 78 46 46 9 145 -11 303 -62 185 -59 269 -75 414 -75 145 0 229
16 414 75 158 51 257 71 303 62 16 -3 52 -24 78 -46 l48 -40 62 67 62 68 -54
51 c-63 61 -101 74 -210 74 -77 0 -144 -15 -458 -102 -102 -28 -130 -32 -245
-32 -115 0 -143 4 -245 32 -322 89 -380 102 -463 102 -45 -1 -100 -7 -121 -15z"/>
<path d="M3289 4387 c-42 -33 -146 -217 -190 -338 -32 -87 -58 -207 -59 -272
0 -25 -10 -50 -29 -77 -101 -139 -34 -347 129 -405 81 -29 181 -14 252 36 28
20 41 22 158 20 83 -2 162 3 226 14 204 35 459 123 684 235 l115 58 100 -51
c203 -102 400 -175 600 -223 93 -23 137 -27 286 -30 l176 -3 48 -30 c105 -67
244 -51 333 37 95 95 103 257 19 358 -19 22 -26 46 -31 103 -14 146 -88 339
-186 491 -51 78 -65 89 -108 90 -46 0 -71 -16 -88 -55 -17 -41 -12 -55 47
-151 60 -99 107 -203 130 -291 20 -82 17 -92 -26 -93 -33 -1 -98 -35 -133 -71
-43 -42 -72 -100 -81 -158 l-6 -46 -45 -3 c-116 -9 -367 43 -557 114 -123 46
-273 114 -273 124 0 5 19 19 42 33 l42 24 45 -32 c67 -47 122 -65 198 -65 74
0 74 10 0 30 -27 7 -74 30 -105 50 -127 82 -208 209 -221 343 l-7 72 -13 -39
c-9 -26 -12 -66 -9 -121 l6 -82 -92 -56 -91 -56 -35 21 c-19 12 -60 37 -92 57
l-56 35 5 72 c5 64 -2 152 -12 142 -2 -2 -10 -35 -19 -74 -20 -97 -57 -166
-129 -241 -61 -64 -148 -117 -213 -129 -59 -11 -48 -24 19 -24 77 0 133 18
197 64 l46 33 42 -24 c23 -14 42 -28 42 -33 0 -8 -117 -63 -236 -111 -180 -71
-438 -129 -576 -129 l-55 0 -6 49 c-7 62 -28 105 -76 154 -44 47 -74 64 -140
78 -48 10 -51 12 -45 37 27 124 66 218 144 346 59 98 65 142 25 181 -27 28
-88 34 -116 12z m-4 -721 c51 -22 77 -69 72 -130 -11 -124 -164 -161 -234 -57
-42 62 -19 147 48 183 41 22 68 23 114 4z m2693 0 c131 -68 90 -246 -57 -246
-37 0 -49 6 -82 39 -33 33 -39 45 -39 82 0 100 96 168 178 125z"/>
</g>
</svg>
